<svg width="240" height="240" viewBox="0 0 240 240" fill="none" xmlns="http://www.w3.org/2000/svg">
<rect x="0.5" y="0.5" width="239" height="239" stroke="black"/>
<rect width="240" height="240" fill="white"/>
<rect x="15" y="15" width="210" height="210" fill="black"/>
<circle cx="187" cy="52" r="12.5" fill="white" stroke="black"/>
<circle cx="187" cy="52" r="9" fill="black"/>
<path d="M183.04 57C183.04 55.208 183.04 53.3947 183.04 51.56C183.04 49.7253 183.04 47.912 183.04 46.12C183.68 46.12 184.32 46.12 184.96 46.12C185.611 46.12 186.256 46.12 186.896 46.12C187.707 46.12 188.416 46.2747 189.024 46.584C189.632 46.8827 190.101 47.3093 190.432 47.864C190.773 48.408 190.944 49.048 190.944 49.784C190.944 50.4133 190.816 50.9733 190.56 51.464C190.304 51.9547 189.957 52.3547 189.52 52.664C189.947 53.3787 190.373 54.104 190.8 54.84C191.237 55.5653 191.669 56.2853 192.096 57C191.573 57 191.051 57 190.528 57C190.005 57 189.483 57 188.96 57C188.629 56.4027 188.293 55.7947 187.952 55.176C187.621 54.5573 187.285 53.9493 186.944 53.352C186.763 53.352 186.576 53.352 186.384 53.352C186.203 53.352 186.021 53.352 185.84 53.352C185.84 53.9493 185.84 54.5573 185.84 55.176C185.84 55.7947 185.84 56.4027 185.84 57C185.381 57 184.917 57 184.448 57C183.979 57 183.509 57 183.04 57ZM186.896 48.648C186.725 48.648 186.549 48.648 186.368 48.648C186.197 48.648 186.021 48.648 185.84 48.648C185.84 49.0427 185.84 49.4373 185.84 49.832C185.84 50.2267 185.84 50.6213 185.84 51.016C186.043 51.016 186.245 51.016 186.448 51.016C186.651 51.016 186.853 51.016 187.056 51.016C187.376 51.016 187.637 50.904 187.84 50.68C188.043 50.4453 188.144 50.1627 188.144 49.832C188.144 49.4907 188.032 49.208 187.808 48.984C187.595 48.76 187.291 48.648 186.896 48.648Z" fill="white"/>
<path d="M167 51.5L53 51V96H124.5C120 128 95.8829 138.533 53 142V186C84 186 101 182 125 169C150.5 186 166 186 187 186V142C171.8 142 159.5 139.5 155 134C163 123.6 167 104.667 168 96H187V72C177 72 167 62 167 51.5Z" fill="white" stroke="black"/>
</svg>
